HIERARCHY
ROOT joint_Root
{
	OFFSET 0.0 0.0 0.0
	CHANNELS 6 Xposition Yposition Zposition Zrotation Xrotation Yrotation 
	JOINT Hips
	{
		OFFSET 4.5925 91.4895 -427.239
		CHANNELS 6 Xposition Yposition Zposition Zrotation Xrotation Yrotation 
		JOINT Spine
		{
			OFFSET 15.7357 0.0 0.0
			CHANNELS 6 Xposition Yposition Zposition Zrotation Xrotation Yrotation 
			JOINT Chest
			{
				OFFSET 8.98455 -0.406207 0.0
				CHANNELS 6 Xposition Yposition Zposition Zrotation Xrotation Yrotation 
				JOINT Neck
				{
					OFFSET 16.3773 0.0 0.0
					CHANNELS 6 Xposition Yposition Zposition Zrotation Xrotation Yrotation 
					JOINT Head
					{
						OFFSET 6.45672 0.0 0.0
						CHANNELS 6 Xposition Yposition Zposition Zrotation Xrotation Yrotation 
						End Site
						{
							OFFSET 0.0 0.0 0.0
						}
					}
				}
				JOINT Shoulder_L
				{
					OFFSET 12.9942 -0.242716 4.98039
					CHANNELS 6 Xposition Yposition Zposition Zrotation Xrotation Yrotation 
					JOINT UpperArm_L
					{
						OFFSET 5.34809 0.0 0.0
						CHANNELS 6 Xposition Yposition Zposition Zrotation Xrotation Yrotation 
						JOINT LowerArm_L
						{
							OFFSET 24.3286 1.87007e-05 0.0
							CHANNELS 6 Xposition Yposition Zposition Zrotation Xrotation Yrotation 
							JOINT Hand_L
							{
								OFFSET 22.2916 0.0 0.0
								CHANNELS 6 Xposition Yposition Zposition Zrotation Xrotation Yrotation 
								End Site
								{
									OFFSET 0.0 0.0 0.0
								}
							}
						}
					}
				}
				JOINT Shoulder_R
				{
					OFFSET 12.9945 -0.242716 -4.98039
					CHANNELS 6 Xposition Yposition Zposition Zrotation Xrotation Yrotation 
					JOINT UpperArm_R
					{
						OFFSET -5.34813 0.0 0.0
						CHANNELS 6 Xposition Yposition Zposition Zrotation Xrotation Yrotation 
						JOINT LowerArm_R
						{
							OFFSET -24.3289 0.000322201 0.0
							CHANNELS 6 Xposition Yposition Zposition Zrotation Xrotation Yrotation 
							JOINT Hand_R
							{
								OFFSET -22.2915 -0.000108084 0.0
								CHANNELS 6 Xposition Yposition Zposition Zrotation Xrotation Yrotation 
								End Site
								{
									OFFSET 0.0 0.0 0.0
								}
							}
						}
					}
				}
			}
		}
		JOINT UpperLeg_L
		{
			OFFSET -2.19248 -6.46944 0.0
			CHANNELS 6 Xposition Yposition Zposition Zrotation Xrotation Yrotation 
			JOINT LowerLeg_L
			{
				OFFSET 39.0811 0.0 -1.23785e-05
				CHANNELS 6 Xposition Yposition Zposition Zrotation Xrotation Yrotation 
				JOINT Foot_L
				{
					OFFSET 40.9854 0.0 -1.26872e-05
					CHANNELS 6 Xposition Yposition Zposition Zrotation Xrotation Yrotation 
					JOINT Toes_L
					{
						OFFSET 11.7543 0.0 0.0
						CHANNELS 6 Xposition Yposition Zposition Zrotation Xrotation Yrotation 
						End Site
						{
							OFFSET 0.0 0.0 0.0
						}
					}
				}
			}
		}
		JOINT UpperLeg_R
		{
			OFFSET -2.19251 6.46944 0.0
			CHANNELS 6 Xposition Yposition Zposition Zrotation Xrotation Yrotation 
			JOINT LowerLeg_R
			{
				OFFSET -39.0811 -0.00228153 -0.0401928
				CHANNELS 6 Xposition Yposition Zposition Zrotation Xrotation Yrotation 
				JOINT Foot_R
				{
					OFFSET -40.9854 0.0 0.0
					CHANNELS 6 Xposition Yposition Zposition Zrotation Xrotation Yrotation 
					JOINT Toes_R
					{
						OFFSET -11.7543 0.0 0.0
						CHANNELS 6 Xposition Yposition Zposition Zrotation Xrotation Yrotation 
						End Site
						{
							OFFSET 0.0 0.0 0.0
						}
					}
				}
			}
		}
	}
}
MOTION
Frames:	9
Frame Time:	0.0333333
0.000000 0.000000 0.000000 0.000000 0.000000 -0.000000 135.446000 91.764700 -97.638800 90.897200 -7.743730 -1.983970 15.735700 0.000005 -0.000001 118.575000 82.960500 -118.989000 8.984550 -0.406207 -0.000000 4.648520 6.733280 -1.101950 16.377300 -0.000001 -0.000001 2.641630 -3.527090 2.670730 6.456720 -0.000001 -0.000000 -2.160410 -6.513830 -0.091518 12.994200 -0.242716 4.980390 -88.214300 -4.282650 -67.338400 5.348090 -0.000007 -0.000001 -71.455300 44.676000 35.727000 24.328600 0.000019 0.000005 -3.125580 -0.896480 -74.006700 22.291600 -0.000001 0.000005 4.197190 5.504650 -6.721700 12.994500 -0.242716 -4.980390 89.664400 1.860860 -79.776600 -5.348130 -0.000001 -0.000004 -47.474600 40.244600 -59.532500 -24.328900 0.000322 -0.000009 -11.546500 5.406740 -114.757000 -22.291500 -0.000108 -0.000004 19.377700 5.591640 -10.857800 -2.192480 -6.469440 -0.000000 177.289000 -2.560820 -31.882900 39.081100 -0.000007 -0.000012 0.082578 -0.030902 69.479900 40.985400 -0.000006 -0.000013 3.071150 -4.286150 -61.726900 11.754300 -0.000000 0.000003 -0.005628 -0.067429 -19.320800 -2.192510 6.469440 -0.000001 171.459000 14.662600 177.830000 -39.081100 -0.002282 -0.040193 -0.007875 0.021695 27.269000 -40.985400 0.000008 0.000006 2.316690 10.668100 -67.597300 -11.754300 -0.000006 -0.000006 -0.015195 -0.139040 -22.246200
0.000000 0.000000 0.000000 0.000000 0.000000 -0.000000 135.627000 92.401300 -94.512000 90.866400 -8.071490 -2.533870 15.735700 0.000005 -0.000001 121.240000 82.728100 -121.990000 8.984550 -0.406207 -0.000000 4.752120 7.548540 -1.813300 16.377300 -0.000001 -0.000001 1.638890 -3.700860 2.108140 6.456720 -0.000001 -0.000000 -3.068090 -7.353510 -0.127335 12.994200 -0.242716 4.980390 -87.155700 -6.986450 -67.780100 5.348090 -0.000007 -0.000001 -72.333100 40.080300 39.594300 24.328600 0.000019 0.000005 -3.480820 -0.952045 -74.721200 22.291600 -0.000001 0.000005 4.384270 5.502650 -6.641180 12.994500 -0.242716 -4.980390 89.829800 0.971654 -80.066100 -5.348130 -0.000001 -0.000004 -48.051500 37.383200 -60.954400 -24.328900 0.000322 -0.000009 -12.976500 7.128390 -118.300000 -22.291500 -0.000108 -0.000004 20.148600 5.591530 -10.847400 -2.192480 -6.469440 -0.000000 178.241000 -3.123490 -33.454500 39.081100 -0.000007 -0.000012 0.079194 -0.045742 59.986600 40.985400 -0.000006 -0.000013 -0.031590 -0.389785 -64.374300 11.754300 -0.000000 0.000003 -0.006358 -0.074058 -19.591100 -2.192510 6.469440 -0.000001 169.329000 20.208100 -178.944000 -39.081100 -0.002282 -0.040193 -0.009816 0.029706 23.846300 -40.985400 0.000008 0.000006 2.854530 16.798600 -63.931100 -11.754300 -0.000006 -0.000006 -0.029432 -0.214848 -25.373500
0.000000 0.000000 0.000000 0.000000 0.000000 -0.000000 135.633000 92.078800 -91.528500 90.578900 -8.020080 -2.893250 15.735700 0.000005 -0.000001 121.687000 82.530000 -122.601000 8.984550 -0.406207 -0.000000 5.048140 7.853530 -2.175020 16.377300 -0.000001 -0.000001 0.430731 -3.721800 1.325390 6.456720 -0.000001 -0.000000 -4.088290 -7.850210 -0.209499 12.994200 -0.242716 4.980390 -86.610300 -8.540840 -68.256700 5.348090 -0.000007 -0.000001 -71.455500 35.238000 40.217800 24.328600 0.000019 0.000005 -1.562260 -0.438901 -74.308200 22.291600 -0.000001 0.000005 4.473360 5.492150 -6.220550 12.994500 -0.242716 -4.980390 89.879800 0.694518 -80.185500 -5.348130 -0.000001 -0.000004 -48.965200 36.405800 -59.848800 -24.328900 0.000322 -0.000009 -14.591600 8.495550 -119.575000 -22.291500 -0.000108 -0.000004 20.786700 5.592750 -10.918100 -2.192480 -6.469440 -0.000000 179.658000 -4.481640 -34.174700 39.081100 -0.000007 -0.000012 0.054546 -0.046984 49.257400 40.985400 -0.000006 -0.000013 -1.859100 1.143160 -65.224000 11.754300 -0.000000 0.000003 -0.006450 -0.074881 -19.624700 -2.192510 6.469440 -0.000001 167.947000 23.116900 -177.063000 -39.081100 -0.002282 -0.040193 -0.013703 0.038241 23.988700 -40.985400 0.000008 0.000006 3.519280 19.512000 -63.443600 -11.754300 -0.000006 -0.000006 -0.044043 -0.275842 -27.916400
0.000000 0.000000 0.000000 0.000000 0.000000 -0.000000 135.582000 90.966000 -88.368000 89.907100 -8.088730 -2.320150 15.735700 0.000005 -0.000001 119.509000 82.061000 -120.368000 8.984550 -0.406207 -0.000000 6.155840 7.811460 -2.138560 16.377300 -0.000001 -0.000001 -0.895905 -3.461140 0.728969 6.456720 -0.000001 -0.000000 -5.514820 -7.745210 -0.637335 12.994200 -0.242716 4.980390 -86.761400 -8.312430 -68.624900 5.348090 -0.000007 -0.000001 -69.212500 30.261800 38.281700 24.328600 0.000019 0.000005 -0.052620 -0.015101 -73.951700 22.291600 -0.000001 0.000005 4.632410 5.478730 -5.701230 12.994500 -0.242716 -4.980390 89.810100 1.167420 -80.759300 -5.348130 -0.000001 -0.000004 -50.062000 37.086900 -55.895400 -24.328900 0.000322 -0.000009 -16.546500 9.224200 -118.351000 -22.291500 -0.000108 -0.000004 21.312900 5.595220 -11.060000 -2.192480 -6.469440 -0.000000 -178.295000 -5.365310 -33.895300 39.081100 -0.000007 -0.000012 0.035476 -0.041599 40.456400 40.985400 -0.000006 -0.000013 -2.100170 -1.123820 -65.600200 11.754300 -0.000000 0.000003 -0.006055 -0.071343 -19.480400 -2.192510 6.469440 -0.000001 168.356000 19.302300 -176.007000 -39.081100 -0.002282 -0.040193 -0.015408 0.036673 27.037900 -40.985400 0.000008 0.000006 3.426700 15.837500 -65.087400 -11.754300 -0.000006 -0.000006 -0.052689 -0.307222 -29.235900
0.000000 0.000000 0.000000 0.000000 0.000000 -0.000000 135.743000 89.269700 -84.672300 89.394100 -7.862670 -1.077410 15.735700 0.000005 -0.000001 115.570000 81.505000 -116.253000 8.984550 -0.406207 -0.000000 7.651060 7.304910 -1.856280 16.377300 -0.000001 -0.000001 -1.754090 -3.134790 0.483739 6.456720 -0.000001 -0.000000 -7.184760 -7.085570 -1.526930 12.994200 -0.242716 4.980390 -87.605400 -6.378210 -69.374100 5.348090 -0.000007 -0.000001 -66.762900 24.957600 34.815500 24.328600 0.000019 0.000005 1.585460 0.455283 -73.978500 22.291600 -0.000001 0.000005 5.672630 5.478740 -5.698750 12.994500 -0.242716 -4.980390 89.633400 2.470520 -81.550500 -5.348130 -0.000001 -0.000004 -51.434400 38.729000 -48.678500 -24.328900 0.000322 -0.000009 -17.746400 8.437900 -114.633000 -22.291500 -0.000108 -0.000004 21.977600 5.591690 -10.857400 -2.192480 -6.469440 -0.000000 -177.309000 -7.215720 -33.874300 39.081100 -0.000007 -0.000012 0.035925 -0.046677 37.583100 40.985400 -0.000006 -0.000013 -1.036370 -4.742580 -67.176300 11.754300 -0.000000 0.000003 -0.006103 -0.071776 -19.498000 -2.192510 6.469440 -0.000001 167.812000 16.095200 -173.855000 -39.081100 -0.002282 -0.040193 -0.027302 0.051717 30.614400 -40.985400 0.000008 0.000006 2.697240 13.949100 -67.591200 -11.754300 -0.000006 -0.000006 -0.065220 -0.348376 -30.980000
0.000000 0.000000 0.000000 0.000000 0.000000 -0.000000 136.064000 87.348300 -80.260100 89.106800 -6.989680 -0.456556 15.735700 0.000005 -0.000001 111.347000 81.640900 -112.005000 8.984550 -0.406207 -0.000000 7.873680 6.059900 -1.733120 16.377300 -0.000001 -0.000001 -1.649740 -2.941130 1.081070 6.456720 -0.000001 -0.000000 -7.405540 -5.971570 -2.039510 12.994200 -0.242716 4.980390 -88.898200 -2.999660 -69.819500 5.348090 -0.000007 -0.000001 -63.925300 20.254700 30.182400 24.328600 0.000019 0.000005 3.007820 0.816478 -74.826200 22.291600 -0.000001 0.000005 6.580670 5.488930 -6.090350 12.994500 -0.242716 -4.980390 89.262200 5.355780 -82.145300 -5.348130 -0.000001 -0.000004 -53.376500 40.628400 -37.565200 -24.328900 0.000322 -0.000009 -19.145500 6.154240 -107.161000 -22.291500 -0.000108 -0.000004 21.800700 5.592190 -10.886100 -2.192480 -6.469440 -0.000000 -177.525000 -10.609100 -34.972400 39.081100 -0.000007 -0.000012 0.021786 -0.026074 39.877400 40.985400 -0.000006 -0.000013 -1.452670 -4.753110 -66.861800 11.754300 -0.000000 0.000003 -0.008129 -0.089094 -20.204900 -2.192510 6.469440 -0.000001 167.076000 13.738600 -171.708000 -39.081100 -0.002282 -0.040193 -0.031509 0.051577 34.009400 -40.985400 0.000008 0.000006 1.860150 12.766300 -69.033400 -11.754300 -0.000006 -0.000006 -0.095123 -0.432292 -34.592200
0.000000 0.000000 0.000000 0.000000 0.000000 -0.000000 136.716000 85.766500 -75.212000 89.711400 -6.301600 -0.482961 15.735700 0.000005 -0.000001 107.751000 82.345600 -108.805000 8.984550 -0.406207 -0.000000 6.875100 4.660210 -2.385230 16.377300 -0.000001 -0.000001 -1.028890 -2.930980 1.614660 6.456720 -0.000001 -0.000000 -6.256590 -5.202210 -0.986613 12.994200 -0.242716 4.980390 -90.729500 1.870510 -68.727100 5.348090 -0.000007 -0.000001 -60.426700 19.050700 22.592200 24.328600 0.000019 0.000005 1.208990 0.316788 -75.312100 22.291600 -0.000001 0.000005 7.594110 5.499450 -6.506980 12.994500 -0.242716 -4.980390 88.596400 9.303430 -81.384900 -5.348130 -0.000001 -0.000004 -54.614000 42.606000 -25.190200 -24.328900 0.000322 -0.000009 -18.502800 1.407640 -94.178500 -22.291500 -0.000108 -0.000004 21.119200 5.581150 -10.268300 -2.192480 -6.469440 -0.000000 -179.007000 -13.391700 -36.892800 39.081100 -0.000007 -0.000012 -0.056943 0.054320 46.352300 40.985400 -0.000006 -0.000013 -0.351151 -2.293360 -60.879600 11.754300 -0.000000 0.000003 -0.003900 -0.050401 -18.626900 -2.192510 6.469440 -0.000001 166.285000 10.832600 -171.422000 -39.081100 -0.002282 -0.040193 0.022339 -0.023692 38.813300 -40.985400 0.000008 0.000006 1.520990 10.147600 -66.891000 -11.754300 -0.000006 -0.000006 -0.182552 -0.615305 -42.822200
0.000000 0.000000 0.000000 0.000000 0.000000 -0.000000 137.532000 84.942400 -70.040900 89.819200 -4.591730 0.432091 15.735700 0.000005 -0.000001 102.341000 82.690200 -103.647000 8.984550 -0.406207 -0.000000 6.560270 3.128850 -2.789000 16.377300 -0.000001 -0.000001 -0.342976 -3.217380 2.059330 6.456720 -0.000001 -0.000000 -5.470450 -5.517870 0.700888 12.994200 -0.242716 4.980390 -92.565600 6.022590 -66.877400 5.348090 -0.000007 -0.000001 -57.902000 22.263300 10.058300 24.328600 0.000019 0.000005 -3.172880 -0.883358 -74.462000 22.291600 -0.000001 0.000005 10.483100 5.508310 -6.873170 12.994500 -0.242716 -4.980390 87.994000 11.288900 -79.856000 -5.348130 -0.000001 -0.000004 -59.142600 42.311400 -13.151300 -24.328900 0.000322 -0.000009 -14.855900 -4.595530 -73.156000 -22.291500 -0.000108 -0.000004 16.572700 5.549350 -8.625410 -2.192480 -6.469440 -0.000000 -179.014000 -12.074100 -35.373800 39.081100 -0.000007 -0.000012 -0.246373 0.191664 52.119900 40.985400 -0.000006 -0.000013 -0.260308 -1.716520 -66.531200 11.754300 -0.000000 0.000003 -0.000005 -0.000068 -16.580200 -2.192510 6.469440 -0.000001 166.693000 9.497570 -173.323000 -39.081100 -0.002282 -0.040193 0.181137 -0.164957 47.158800 -40.985400 0.000008 0.000006 4.555140 6.422860 -56.989000 -11.754300 -0.000006 -0.000006 -0.372334 -0.874777 -55.884600
0.000000 0.000000 0.000000 0.000000 0.000000 -0.000000 138.471000 84.975300 -65.412000 90.709300 -1.769550 1.859000 15.735700 0.000005 -0.000001 97.983400 82.516800 -99.696200 8.984550 -0.406207 -0.000000 7.092370 2.081420 -3.551120 16.377300 -0.000001 -0.000001 0.184875 -4.702240 1.997110 6.456720 -0.000001 -0.000000 -4.853650 -6.936070 2.540980 12.994200 -0.242716 4.980390 -92.881100 7.143570 -67.967300 5.348090 -0.000007 -0.000001 -58.366200 26.604400 -4.017180 24.328600 0.000019 0.000005 -2.565660 -0.614604 -76.585300 22.291600 -0.000001 0.000005 11.214200 5.516440 -7.216230 12.994500 -0.242716 -4.980390 88.004700 10.870000 -79.533200 -5.348130 -0.000001 -0.000004 -65.338600 37.849300 -0.090457 -24.328900 0.000322 -0.000009 -8.742310 -5.914280 -56.143800 -22.291500 -0.000108 -0.000004 16.327400 5.572010 -9.794420 -2.192480 -6.469440 -0.000000 -179.964000 -8.078890 -31.269200 39.081100 -0.000007 -0.000012 -0.391452 0.289023 53.561100 40.985400 -0.000006 -0.000013 -0.544150 -2.972020 -70.760100 11.754300 -0.000000 0.000003 -0.000026 -0.000322 -16.590100 -2.192510 6.469440 -0.000001 166.876000 7.985030 -178.711000 -39.081100 -0.002282 -0.040193 0.333813 -0.203426 58.395600 -40.985400 0.000008 0.000006 2.020830 1.824210 -41.197000 -11.754300 -0.000006 -0.000006 -0.202366 -0.649019 -44.407800
